# xmcd
#
# Track frame offsets:
#	150
#	19842
#	35562
#	56750
#	81837
#	111987
#	125122
#	137247
#	162267
#	177034
#	191380
#	218130
#	240355
#	271200
#
# Disc length: 3829 seconds
#
# Revision: 0
# Processed by: cddbd v1.5.2PL0 Copyright (c) Steve Scherf et al.
# Submitted via: EasyCDDAExtractor 16.0.6.1
#
DISCID=c40ef30e
DTITLE=crooners - die schnulz'nsänger
DYEAR=1900
DGENRE=
TTITLE0=Old folks Boogie
TTITLE1=Jockey full of Bourbon
TTITLE2=Clap hands
TTITLE3=Jersey Girl
TTITLE4=Tango till they're sore
TTITLE5=Some of these days
TTITLE6=Haka Waka
TTITLE7=Fumblin with the Blues
TTITLE8=Digga digga doo
TTITLE9=Wild years
TTITLE10=Invitation to the Blues
TTITLE11=Come into my room
TTITLE12=Come on
TTITLE13=Strange weather
EXTD=
EXTT0=
EXTT1=
EXTT2=
EXTT3=
EXTT4=
EXTT5=
EXTT6=
EXTT7=
EXTT8=
EXTT9=
EXTT10=
EXTT11=
EXTT12=
EXTT13=
PLAYORDER=
